<mxfile host="65bd71144e">
    <diagram id="5gMrNbhCcvMap2-kCo8e" name="Page-1">
        <mxGraphModel dx="359" dy="298" grid="1" gridSize="5" guides="1" tooltips="1" connect="1" arrows="1" fold="1" page="1" pageScale="1" pageWidth="827" pageHeight="1169" math="0" shadow="0">
            <root>
                <mxCell id="0"/>
                <mxCell id="1" parent="0"/>
                <mxCell id="232" style="edgeStyle=none;html=1;entryX=0.5;entryY=0;entryDx=0;entryDy=0;" parent="1" source="233" target="236" edge="1">
                    <mxGeometry relative="1" as="geometry">
                        <mxPoint x="110" y="190" as="targetPoint"/>
                    </mxGeometry>
                </mxCell>
                <mxCell id="233" value="Start" style="strokeWidth=2;html=1;shape=mxgraph.flowchart.start_1;whiteSpace=wrap;" parent="1" vertex="1">
                    <mxGeometry x="40" y="80" width="100" height="60" as="geometry"/>
                </mxCell>
                <mxCell id="234" value="Stop" style="strokeWidth=2;html=1;shape=mxgraph.flowchart.start_1;whiteSpace=wrap;" parent="1" vertex="1">
                    <mxGeometry x="230" y="80" width="100" height="60" as="geometry"/>
                </mxCell>
                <mxCell id="350" style="edgeStyle=none;html=1;entryX=0.5;entryY=0;entryDx=0;entryDy=0;fontSize=4;" edge="1" parent="1" source="236" target="240">
                    <mxGeometry relative="1" as="geometry"/>
                </mxCell>
                <mxCell id="236" value="Get&lt;br&gt;lengthOne" style="shape=parallelogram;html=1;strokeWidth=2;perimeter=parallelogramPerimeter;whiteSpace=wrap;rounded=1;arcSize=12;size=0.23;fontSize=12;" parent="1" vertex="1">
                    <mxGeometry x="40" y="180" width="100" height="60" as="geometry"/>
                </mxCell>
                <mxCell id="237" value="isValid" style="text;html=1;align=center;verticalAlign=middle;resizable=0;points=[];autosize=1;strokeColor=none;fillColor=none;" parent="1" vertex="1">
                    <mxGeometry x="170" y="35" width="55" height="30" as="geometry"/>
                </mxCell>
                <mxCell id="321" style="edgeStyle=orthogonalEdgeStyle;rounded=0;html=1;fontSize=11;" parent="1" source="239" target="234" edge="1">
                    <mxGeometry relative="1" as="geometry"/>
                </mxCell>
                <mxCell id="239" value="return&lt;br&gt;isValid" style="shape=parallelogram;html=1;strokeWidth=2;perimeter=parallelogramPerimeter;whiteSpace=wrap;rounded=1;arcSize=12;size=0.23;fontSize=12;" parent="1" vertex="1">
                    <mxGeometry x="230" y="180" width="100" height="60" as="geometry"/>
                </mxCell>
                <mxCell id="351" style="edgeStyle=none;html=1;fontSize=4;" edge="1" parent="1" source="240" target="241">
                    <mxGeometry relative="1" as="geometry"/>
                </mxCell>
                <mxCell id="240" value="Get&lt;br&gt;lengthTwo" style="shape=parallelogram;html=1;strokeWidth=2;perimeter=parallelogramPerimeter;whiteSpace=wrap;rounded=1;arcSize=12;size=0.23;fontSize=12;" parent="1" vertex="1">
                    <mxGeometry x="40" y="280" width="100" height="60" as="geometry"/>
                </mxCell>
                <mxCell id="349" style="edgeStyle=none;html=1;entryX=0;entryY=0.5;entryDx=0;entryDy=0;entryPerimeter=0;fontSize=4;" edge="1" parent="1" source="241" target="348">
                    <mxGeometry relative="1" as="geometry"/>
                </mxCell>
                <mxCell id="241" value="Get&lt;br&gt;lengthThree" style="shape=parallelogram;html=1;strokeWidth=2;perimeter=parallelogramPerimeter;whiteSpace=wrap;rounded=1;arcSize=12;size=0.23;fontSize=12;" parent="1" vertex="1">
                    <mxGeometry x="40" y="380" width="100" height="60" as="geometry"/>
                </mxCell>
                <mxCell id="354" style="edgeStyle=none;html=1;entryX=0.5;entryY=1;entryDx=0;entryDy=0;fontSize=7;" edge="1" parent="1" source="245" target="239">
                    <mxGeometry relative="1" as="geometry"/>
                </mxCell>
                <mxCell id="245" value="isValid = false" style="rounded=1;whiteSpace=wrap;html=1;absoluteArcSize=1;arcSize=14;strokeWidth=2;fontSize=12;" parent="1" vertex="1">
                    <mxGeometry x="230" y="285" width="100" height="60" as="geometry"/>
                </mxCell>
                <mxCell id="355" style="edgeStyle=none;html=1;fontSize=7;" edge="1" parent="1" source="348" target="245">
                    <mxGeometry relative="1" as="geometry"/>
                </mxCell>
                <mxCell id="358" style="html=1;entryX=1;entryY=0.5;entryDx=0;entryDy=0;fontSize=12;rounded=0;edgeStyle=orthogonalEdgeStyle;exitX=1;exitY=0.5;exitDx=0;exitDy=0;exitPerimeter=0;" edge="1" parent="1" source="348" target="239">
                    <mxGeometry relative="1" as="geometry">
                        <Array as="points">
                            <mxPoint x="395" y="410"/>
                            <mxPoint x="395" y="210"/>
                        </Array>
                    </mxGeometry>
                </mxCell>
                <mxCell id="348" value="if (&lt;span style=&quot;background-color: initial; font-size: 7px;&quot;&gt;sumOfOneAndTwo &amp;lt;&lt;br style=&quot;font-size: 7px;&quot;&gt;this.lengthThree&amp;nbsp;&lt;/span&gt;&lt;span style=&quot;background-color: initial; font-size: 7px;&quot;&gt;|| sumOfTwoAndThree&lt;br style=&quot;font-size: 7px;&quot;&gt;&amp;lt; this.lengthOne&amp;nbsp;&lt;/span&gt;&lt;span style=&quot;background-color: initial; font-size: 7px;&quot;&gt;||sumOfOneAndThree&lt;br&gt;&amp;lt; this.lengthTwo&lt;/span&gt;)" style="strokeWidth=2;html=1;shape=mxgraph.flowchart.decision;whiteSpace=wrap;fontSize=7;" vertex="1" parent="1">
                    <mxGeometry x="180" y="380" width="200" height="60" as="geometry"/>
                </mxCell>
                <mxCell id="356" value="Yes" style="text;html=1;align=center;verticalAlign=middle;resizable=0;points=[];autosize=1;strokeColor=none;fillColor=none;fontSize=12;" vertex="1" parent="1">
                    <mxGeometry x="275" y="355" width="40" height="30" as="geometry"/>
                </mxCell>
                <mxCell id="357" value="No" style="text;html=1;align=center;verticalAlign=middle;resizable=0;points=[];autosize=1;strokeColor=none;fillColor=none;fontSize=12;" vertex="1" parent="1">
                    <mxGeometry x="365" y="380" width="35" height="30" as="geometry"/>
                </mxCell>
                <mxCell id="359" style="edgeStyle=none;html=1;entryX=0.5;entryY=0;entryDx=0;entryDy=0;" edge="1" parent="1" source="360" target="363">
                    <mxGeometry relative="1" as="geometry">
                        <mxPoint x="510" y="190" as="targetPoint"/>
                    </mxGeometry>
                </mxCell>
                <mxCell id="360" value="Start" style="strokeWidth=2;html=1;shape=mxgraph.flowchart.start_1;whiteSpace=wrap;" vertex="1" parent="1">
                    <mxGeometry x="440" y="80" width="100" height="60" as="geometry"/>
                </mxCell>
                <mxCell id="361" value="Stop" style="strokeWidth=2;html=1;shape=mxgraph.flowchart.start_1;whiteSpace=wrap;" vertex="1" parent="1">
                    <mxGeometry x="720" y="75" width="100" height="60" as="geometry"/>
                </mxCell>
                <mxCell id="362" style="edgeStyle=none;html=1;entryX=0.5;entryY=0;entryDx=0;entryDy=0;fontSize=4;" edge="1" parent="1" source="363" target="368">
                    <mxGeometry relative="1" as="geometry"/>
                </mxCell>
                <mxCell id="363" value="Get&lt;br&gt;lengthOne" style="shape=parallelogram;html=1;strokeWidth=2;perimeter=parallelogramPerimeter;whiteSpace=wrap;rounded=1;arcSize=12;size=0.23;fontSize=12;" vertex="1" parent="1">
                    <mxGeometry x="440" y="180" width="100" height="60" as="geometry"/>
                </mxCell>
                <mxCell id="364" value="area" style="text;html=1;align=center;verticalAlign=middle;resizable=0;points=[];autosize=1;strokeColor=none;fillColor=none;" vertex="1" parent="1">
                    <mxGeometry x="607.5" y="35" width="45" height="30" as="geometry"/>
                </mxCell>
                <mxCell id="365" style="edgeStyle=orthogonalEdgeStyle;rounded=0;html=1;fontSize=11;" edge="1" parent="1" source="366" target="361">
                    <mxGeometry relative="1" as="geometry"/>
                </mxCell>
                <mxCell id="366" value="return&lt;br&gt;area" style="shape=parallelogram;html=1;strokeWidth=2;perimeter=parallelogramPerimeter;whiteSpace=wrap;rounded=1;arcSize=12;size=0.23;fontSize=12;" vertex="1" parent="1">
                    <mxGeometry x="720" y="175" width="100" height="60" as="geometry"/>
                </mxCell>
                <mxCell id="367" style="edgeStyle=none;html=1;fontSize=4;" edge="1" parent="1" source="368" target="370">
                    <mxGeometry relative="1" as="geometry"/>
                </mxCell>
                <mxCell id="368" value="Get&lt;br&gt;lengthTwo" style="shape=parallelogram;html=1;strokeWidth=2;perimeter=parallelogramPerimeter;whiteSpace=wrap;rounded=1;arcSize=12;size=0.23;fontSize=12;" vertex="1" parent="1">
                    <mxGeometry x="440" y="280" width="100" height="60" as="geometry"/>
                </mxCell>
                <mxCell id="379" style="edgeStyle=orthogonalEdgeStyle;rounded=0;html=1;entryX=0;entryY=0.5;entryDx=0;entryDy=0;fontSize=10;" edge="1" parent="1" source="370" target="378">
                    <mxGeometry relative="1" as="geometry"/>
                </mxCell>
                <mxCell id="370" value="Get&lt;br&gt;lengthThree" style="shape=parallelogram;html=1;strokeWidth=2;perimeter=parallelogramPerimeter;whiteSpace=wrap;rounded=1;arcSize=12;size=0.23;fontSize=12;" vertex="1" parent="1">
                    <mxGeometry x="440" y="380" width="100" height="60" as="geometry"/>
                </mxCell>
                <mxCell id="371" style="edgeStyle=none;html=1;entryX=0.5;entryY=1;entryDx=0;entryDy=0;fontSize=7;" edge="1" parent="1" source="372" target="366">
                    <mxGeometry relative="1" as="geometry"/>
                </mxCell>
                <mxCell id="372" value="&lt;div style=&quot;font-size: 6px;&quot;&gt;area = Math.sqrt(&lt;span style=&quot;background-color: initial; font-size: 6px;&quot;&gt;semiPerimeter&amp;nbsp;&lt;/span&gt;&lt;span style=&quot;background-color: initial; font-size: 6px;&quot;&gt;* (semiPerimeter - this.lengthOne)&amp;nbsp;&lt;/span&gt;&lt;span style=&quot;background-color: initial; font-size: 6px;&quot;&gt;* (semiPerimeter - this.lengthTwo)&amp;nbsp;&lt;/span&gt;&lt;span style=&quot;background-color: initial; font-size: 6px;&quot;&gt;* (semiPerimeter - this.lengthThree)&lt;/span&gt;&lt;span style=&quot;background-color: initial; font-size: 6px;&quot;&gt;)&lt;/span&gt;&lt;/div&gt;" style="rounded=1;whiteSpace=wrap;html=1;absoluteArcSize=1;arcSize=14;strokeWidth=2;fontSize=6;" vertex="1" parent="1">
                    <mxGeometry x="720" y="280" width="100" height="60" as="geometry"/>
                </mxCell>
                <mxCell id="373" style="edgeStyle=none;html=1;fontSize=7;" edge="1" parent="1" source="375" target="372">
                    <mxGeometry relative="1" as="geometry"/>
                </mxCell>
                <mxCell id="374" style="html=1;entryX=1;entryY=0.5;entryDx=0;entryDy=0;fontSize=12;rounded=0;edgeStyle=orthogonalEdgeStyle;exitX=1;exitY=0.5;exitDx=0;exitDy=0;exitPerimeter=0;" edge="1" parent="1" source="375" target="366">
                    <mxGeometry relative="1" as="geometry">
                        <Array as="points">
                            <mxPoint x="860" y="410"/>
                            <mxPoint x="860" y="205"/>
                        </Array>
                    </mxGeometry>
                </mxCell>
                <mxCell id="375" value="if (this.isValid())" style="strokeWidth=2;html=1;shape=mxgraph.flowchart.decision;whiteSpace=wrap;fontSize=11;" vertex="1" parent="1">
                    <mxGeometry x="720" y="380" width="100" height="60" as="geometry"/>
                </mxCell>
                <mxCell id="376" value="Yes" style="text;html=1;align=center;verticalAlign=middle;resizable=0;points=[];autosize=1;strokeColor=none;fillColor=none;fontSize=12;" vertex="1" parent="1">
                    <mxGeometry x="765" y="360" width="40" height="30" as="geometry"/>
                </mxCell>
                <mxCell id="377" value="No" style="text;html=1;align=center;verticalAlign=middle;resizable=0;points=[];autosize=1;strokeColor=none;fillColor=none;fontSize=12;" vertex="1" parent="1">
                    <mxGeometry x="810" y="380" width="35" height="30" as="geometry"/>
                </mxCell>
                <mxCell id="380" style="edgeStyle=orthogonalEdgeStyle;rounded=0;html=1;entryX=0;entryY=0.5;entryDx=0;entryDy=0;entryPerimeter=0;fontSize=10;" edge="1" parent="1" source="378" target="375">
                    <mxGeometry relative="1" as="geometry"/>
                </mxCell>
                <mxCell id="378" value="Get&lt;br style=&quot;font-size: 10px;&quot;&gt;semiPerimeter" style="shape=parallelogram;html=1;strokeWidth=2;perimeter=parallelogramPerimeter;whiteSpace=wrap;rounded=1;arcSize=12;size=0.23;fontSize=10;" vertex="1" parent="1">
                    <mxGeometry x="580" y="380" width="100" height="60" as="geometry"/>
                </mxCell>
                <mxCell id="381" style="edgeStyle=none;html=1;entryX=0.5;entryY=0;entryDx=0;entryDy=0;" edge="1" parent="1" source="382" target="385">
                    <mxGeometry relative="1" as="geometry">
                        <mxPoint x="110" y="610" as="targetPoint"/>
                    </mxGeometry>
                </mxCell>
                <mxCell id="382" value="Start" style="strokeWidth=2;html=1;shape=mxgraph.flowchart.start_1;whiteSpace=wrap;" vertex="1" parent="1">
                    <mxGeometry x="40" y="500" width="100" height="60" as="geometry"/>
                </mxCell>
                <mxCell id="383" value="Stop" style="strokeWidth=2;html=1;shape=mxgraph.flowchart.start_1;whiteSpace=wrap;" vertex="1" parent="1">
                    <mxGeometry x="460" y="500" width="100" height="60" as="geometry"/>
                </mxCell>
                <mxCell id="384" style="edgeStyle=none;html=1;entryX=0.5;entryY=0;entryDx=0;entryDy=0;fontSize=4;" edge="1" parent="1" source="385" target="390">
                    <mxGeometry relative="1" as="geometry"/>
                </mxCell>
                <mxCell id="385" value="Get&lt;br&gt;lengthOne" style="shape=parallelogram;html=1;strokeWidth=2;perimeter=parallelogramPerimeter;whiteSpace=wrap;rounded=1;arcSize=12;size=0.23;fontSize=12;" vertex="1" parent="1">
                    <mxGeometry x="40" y="600" width="100" height="60" as="geometry"/>
                </mxCell>
                <mxCell id="386" value="getType" style="text;html=1;align=center;verticalAlign=middle;resizable=0;points=[];autosize=1;strokeColor=none;fillColor=none;" vertex="1" parent="1">
                    <mxGeometry x="250" y="460" width="65" height="30" as="geometry"/>
                </mxCell>
                <mxCell id="387" style="edgeStyle=orthogonalEdgeStyle;rounded=0;html=1;fontSize=11;" edge="1" parent="1" source="388" target="383">
                    <mxGeometry relative="1" as="geometry"/>
                </mxCell>
                <mxCell id="388" value="return&lt;br&gt;triangleType" style="shape=parallelogram;html=1;strokeWidth=2;perimeter=parallelogramPerimeter;whiteSpace=wrap;rounded=1;arcSize=12;size=0.23;fontSize=12;" vertex="1" parent="1">
                    <mxGeometry x="460" y="600" width="100" height="60" as="geometry"/>
                </mxCell>
                <mxCell id="389" style="edgeStyle=none;html=1;fontSize=4;" edge="1" parent="1" source="390" target="392">
                    <mxGeometry relative="1" as="geometry"/>
                </mxCell>
                <mxCell id="390" value="Get&lt;br&gt;lengthTwo" style="shape=parallelogram;html=1;strokeWidth=2;perimeter=parallelogramPerimeter;whiteSpace=wrap;rounded=1;arcSize=12;size=0.23;fontSize=12;" vertex="1" parent="1">
                    <mxGeometry x="40" y="700" width="100" height="60" as="geometry"/>
                </mxCell>
                <mxCell id="415" style="edgeStyle=orthogonalEdgeStyle;rounded=0;html=1;entryX=0;entryY=0.5;entryDx=0;entryDy=0;entryPerimeter=0;fontSize=5;" edge="1" parent="1" source="392" target="397">
                    <mxGeometry relative="1" as="geometry">
                        <Array as="points">
                            <mxPoint x="90" y="930"/>
                        </Array>
                    </mxGeometry>
                </mxCell>
                <mxCell id="392" value="Get&lt;br&gt;lengthThree" style="shape=parallelogram;html=1;strokeWidth=2;perimeter=parallelogramPerimeter;whiteSpace=wrap;rounded=1;arcSize=12;size=0.23;fontSize=12;" vertex="1" parent="1">
                    <mxGeometry x="40" y="800" width="100" height="60" as="geometry"/>
                </mxCell>
                <mxCell id="407" style="edgeStyle=orthogonalEdgeStyle;rounded=0;html=1;fontSize=12;entryX=0.5;entryY=1;entryDx=0;entryDy=0;" edge="1" parent="1" source="394" target="388">
                    <mxGeometry relative="1" as="geometry">
                        <mxPoint x="510" y="665" as="targetPoint"/>
                    </mxGeometry>
                </mxCell>
                <mxCell id="394" value="&lt;div style=&quot;font-size: 12px;&quot;&gt;triangleType = &quot;Equilateral Triangle&quot;&lt;br style=&quot;font-size: 12px;&quot;&gt;&lt;/div&gt;" style="rounded=1;whiteSpace=wrap;html=1;absoluteArcSize=1;arcSize=14;strokeWidth=2;fontSize=12;" vertex="1" parent="1">
                    <mxGeometry x="320" y="800" width="100" height="60" as="geometry"/>
                </mxCell>
                <mxCell id="403" style="edgeStyle=orthogonalEdgeStyle;rounded=0;html=1;entryX=0.5;entryY=1;entryDx=0;entryDy=0;entryPerimeter=0;fontSize=6;" edge="1" parent="1" source="397" target="402">
                    <mxGeometry relative="1" as="geometry"/>
                </mxCell>
                <mxCell id="405" style="edgeStyle=orthogonalEdgeStyle;rounded=0;html=1;fontSize=12;entryX=0.5;entryY=1;entryDx=0;entryDy=0;" edge="1" parent="1" source="397" target="388">
                    <mxGeometry relative="1" as="geometry">
                        <mxPoint x="510" y="665" as="targetPoint"/>
                    </mxGeometry>
                </mxCell>
                <mxCell id="397" value="if (this.isValid())" style="strokeWidth=2;html=1;shape=mxgraph.flowchart.decision;whiteSpace=wrap;fontSize=11;" vertex="1" parent="1">
                    <mxGeometry x="180" y="900" width="100" height="60" as="geometry"/>
                </mxCell>
                <mxCell id="398" value="Yes" style="text;html=1;align=center;verticalAlign=middle;resizable=0;points=[];autosize=1;strokeColor=none;fillColor=none;fontSize=12;" vertex="1" parent="1">
                    <mxGeometry x="222.5" y="880" width="40" height="30" as="geometry"/>
                </mxCell>
                <mxCell id="399" value="No" style="text;html=1;align=center;verticalAlign=middle;resizable=0;points=[];autosize=1;strokeColor=none;fillColor=none;fontSize=12;" vertex="1" parent="1">
                    <mxGeometry x="270" y="905" width="35" height="30" as="geometry"/>
                </mxCell>
                <mxCell id="404" style="edgeStyle=orthogonalEdgeStyle;rounded=0;html=1;entryX=0;entryY=0.5;entryDx=0;entryDy=0;fontSize=12;" edge="1" parent="1" source="402" target="394">
                    <mxGeometry relative="1" as="geometry"/>
                </mxCell>
                <mxCell id="410" style="edgeStyle=orthogonalEdgeStyle;rounded=0;html=1;entryX=0.5;entryY=1;entryDx=0;entryDy=0;entryPerimeter=0;fontSize=5;" edge="1" parent="1" source="402" target="409">
                    <mxGeometry relative="1" as="geometry"/>
                </mxCell>
                <mxCell id="402" value="if (this.lengthOne ==&lt;br&gt;this.lengthTwo &amp;amp;&amp;amp; this.lengthOne&lt;br&gt;&amp;nbsp;== this.lengthThree)" style="strokeWidth=2;html=1;shape=mxgraph.flowchart.decision;whiteSpace=wrap;fontSize=6;" vertex="1" parent="1">
                    <mxGeometry x="180" y="800" width="100" height="60" as="geometry"/>
                </mxCell>
                <mxCell id="408" value="Yes" style="text;html=1;align=center;verticalAlign=middle;resizable=0;points=[];autosize=1;strokeColor=none;fillColor=none;fontSize=12;" vertex="1" parent="1">
                    <mxGeometry x="262.5" y="805" width="40" height="30" as="geometry"/>
                </mxCell>
                <mxCell id="414" style="edgeStyle=orthogonalEdgeStyle;rounded=0;html=1;entryX=0;entryY=0.5;entryDx=0;entryDy=0;fontSize=5;" edge="1" parent="1" source="409" target="412">
                    <mxGeometry relative="1" as="geometry"/>
                </mxCell>
                <mxCell id="418" style="edgeStyle=orthogonalEdgeStyle;rounded=0;html=1;entryX=0.5;entryY=1;entryDx=0;entryDy=0;entryPerimeter=0;fontSize=6;" edge="1" parent="1" source="409" target="417">
                    <mxGeometry relative="1" as="geometry"/>
                </mxCell>
                <mxCell id="409" value="&lt;div style=&quot;font-size: 5px;&quot;&gt;if (&lt;span style=&quot;background-color: initial; font-size: 5px;&quot;&gt;this.lengthOne ==&lt;/span&gt;&lt;/div&gt;&lt;div style=&quot;font-size: 5px;&quot;&gt;&lt;span style=&quot;background-color: initial; font-size: 5px;&quot;&gt;this.lengthTwo&amp;nbsp;&lt;/span&gt;&lt;span style=&quot;background-color: initial; font-size: 5px;&quot;&gt;|| this.lengthTwo == this.lengthThree&amp;nbsp;&lt;/span&gt;&lt;span style=&quot;background-color: initial; font-size: 5px;&quot;&gt;|| this.lengthThree&lt;/span&gt;&lt;/div&gt;&lt;div style=&quot;font-size: 5px;&quot;&gt;&lt;span style=&quot;background-color: initial; font-size: 5px;&quot;&gt;== this.lengthOne&lt;/span&gt;&lt;span style=&quot;background-color: initial; font-size: 5px;&quot;&gt;)&lt;/span&gt;&lt;/div&gt;" style="strokeWidth=2;html=1;shape=mxgraph.flowchart.decision;whiteSpace=wrap;fontSize=5;" vertex="1" parent="1">
                    <mxGeometry x="180" y="700" width="100" height="60" as="geometry"/>
                </mxCell>
                <mxCell id="411" value="No" style="text;html=1;align=center;verticalAlign=middle;resizable=0;points=[];autosize=1;strokeColor=none;fillColor=none;fontSize=12;" vertex="1" parent="1">
                    <mxGeometry x="225" y="780" width="35" height="30" as="geometry"/>
                </mxCell>
                <mxCell id="416" style="edgeStyle=orthogonalEdgeStyle;rounded=0;html=1;entryX=0.5;entryY=1;entryDx=0;entryDy=0;fontSize=5;" edge="1" parent="1" source="412" target="388">
                    <mxGeometry relative="1" as="geometry"/>
                </mxCell>
                <mxCell id="412" value="&lt;div style=&quot;font-size: 12px;&quot;&gt;triangleType = &quot;Isosceles Triangle&quot;&lt;br style=&quot;font-size: 12px;&quot;&gt;&lt;/div&gt;" style="rounded=1;whiteSpace=wrap;html=1;absoluteArcSize=1;arcSize=14;strokeWidth=2;fontSize=12;" vertex="1" parent="1">
                    <mxGeometry x="320" y="700" width="100" height="60" as="geometry"/>
                </mxCell>
                <mxCell id="420" style="edgeStyle=orthogonalEdgeStyle;rounded=0;html=1;entryX=0;entryY=0.5;entryDx=0;entryDy=0;fontSize=6;" edge="1" parent="1" source="417" target="419">
                    <mxGeometry relative="1" as="geometry"/>
                </mxCell>
                <mxCell id="423" style="edgeStyle=orthogonalEdgeStyle;rounded=0;html=1;entryX=0;entryY=0.5;entryDx=0;entryDy=0;fontSize=6;" edge="1" parent="1" source="417" target="422">
                    <mxGeometry relative="1" as="geometry">
                        <Array as="points">
                            <mxPoint x="230" y="530"/>
                        </Array>
                    </mxGeometry>
                </mxCell>
                <mxCell id="417" value="&lt;div style=&quot;font-size: 6px;&quot;&gt;if (this.lengthOne**2 + this.lengthTwo**2 == this.lengthThree**2)&lt;br style=&quot;font-size: 6px;&quot;&gt;&lt;/div&gt;" style="strokeWidth=2;html=1;shape=mxgraph.flowchart.decision;whiteSpace=wrap;fontSize=6;" vertex="1" parent="1">
                    <mxGeometry x="180" y="600" width="100" height="60" as="geometry"/>
                </mxCell>
                <mxCell id="421" style="edgeStyle=orthogonalEdgeStyle;rounded=0;html=1;entryX=0;entryY=0.5;entryDx=0;entryDy=0;fontSize=6;" edge="1" parent="1" source="419" target="388">
                    <mxGeometry relative="1" as="geometry"/>
                </mxCell>
                <mxCell id="419" value="&lt;div style=&quot;font-size: 12px;&quot;&gt;triangleType = &quot;Right Angle Triangle&quot;&lt;br style=&quot;font-size: 12px;&quot;&gt;&lt;/div&gt;" style="rounded=1;whiteSpace=wrap;html=1;absoluteArcSize=1;arcSize=14;strokeWidth=2;fontSize=12;" vertex="1" parent="1">
                    <mxGeometry x="320" y="600" width="100" height="60" as="geometry"/>
                </mxCell>
                <mxCell id="428" style="edgeStyle=orthogonalEdgeStyle;rounded=0;html=1;entryX=0;entryY=0.5;entryDx=0;entryDy=0;fontSize=6;" edge="1" parent="1" source="422" target="388">
                    <mxGeometry relative="1" as="geometry">
                        <Array as="points">
                            <mxPoint x="445" y="530"/>
                            <mxPoint x="445" y="630"/>
                        </Array>
                    </mxGeometry>
                </mxCell>
                <mxCell id="422" value="&lt;div style=&quot;font-size: 12px;&quot;&gt;triangleType = &quot;Scalene Triangle&quot;&lt;br style=&quot;font-size: 12px;&quot;&gt;&lt;/div&gt;" style="rounded=1;whiteSpace=wrap;html=1;absoluteArcSize=1;arcSize=14;strokeWidth=2;fontSize=12;" vertex="1" parent="1">
                    <mxGeometry x="320" y="500" width="100" height="60" as="geometry"/>
                </mxCell>
                <mxCell id="424" value="Yes" style="text;html=1;align=center;verticalAlign=middle;resizable=0;points=[];autosize=1;strokeColor=none;fillColor=none;fontSize=12;" vertex="1" parent="1">
                    <mxGeometry x="262.5" y="705" width="40" height="30" as="geometry"/>
                </mxCell>
                <mxCell id="425" value="No" style="text;html=1;align=center;verticalAlign=middle;resizable=0;points=[];autosize=1;strokeColor=none;fillColor=none;fontSize=12;" vertex="1" parent="1">
                    <mxGeometry x="225" y="680" width="35" height="30" as="geometry"/>
                </mxCell>
                <mxCell id="426" value="Yes" style="text;html=1;align=center;verticalAlign=middle;resizable=0;points=[];autosize=1;strokeColor=none;fillColor=none;fontSize=12;" vertex="1" parent="1">
                    <mxGeometry x="262.5" y="605" width="40" height="30" as="geometry"/>
                </mxCell>
                <mxCell id="427" value="No" style="text;html=1;align=center;verticalAlign=middle;resizable=0;points=[];autosize=1;strokeColor=none;fillColor=none;fontSize=12;" vertex="1" parent="1">
                    <mxGeometry x="225" y="580" width="35" height="30" as="geometry"/>
                </mxCell>
                <mxCell id="429" style="edgeStyle=none;html=1;entryX=0.5;entryY=0;entryDx=0;entryDy=0;" edge="1" parent="1" source="430" target="433">
                    <mxGeometry relative="1" as="geometry">
                        <mxPoint x="670" y="610" as="targetPoint"/>
                    </mxGeometry>
                </mxCell>
                <mxCell id="430" value="Start" style="strokeWidth=2;html=1;shape=mxgraph.flowchart.start_1;whiteSpace=wrap;" vertex="1" parent="1">
                    <mxGeometry x="600" y="500" width="100" height="60" as="geometry"/>
                </mxCell>
                <mxCell id="431" value="Stop" style="strokeWidth=2;html=1;shape=mxgraph.flowchart.start_1;whiteSpace=wrap;" vertex="1" parent="1">
                    <mxGeometry x="740" y="500" width="100" height="60" as="geometry"/>
                </mxCell>
                <mxCell id="450" style="edgeStyle=orthogonalEdgeStyle;rounded=0;html=1;entryX=0.5;entryY=0;entryDx=0;entryDy=0;entryPerimeter=0;fontSize=10;" edge="1" parent="1" source="433" target="445">
                    <mxGeometry relative="1" as="geometry"/>
                </mxCell>
                <mxCell id="433" value="Get&lt;br&gt;perimeter" style="shape=parallelogram;html=1;strokeWidth=2;perimeter=parallelogramPerimeter;whiteSpace=wrap;rounded=1;arcSize=12;size=0.23;fontSize=12;" vertex="1" parent="1">
                    <mxGeometry x="600" y="600" width="100" height="60" as="geometry"/>
                </mxCell>
                <mxCell id="434" value="semiperimeter" style="text;html=1;align=center;verticalAlign=middle;resizable=0;points=[];autosize=1;strokeColor=none;fillColor=none;" vertex="1" parent="1">
                    <mxGeometry x="675" y="455" width="95" height="30" as="geometry"/>
                </mxCell>
                <mxCell id="435" style="edgeStyle=orthogonalEdgeStyle;rounded=0;html=1;fontSize=11;" edge="1" parent="1" source="436" target="431">
                    <mxGeometry relative="1" as="geometry"/>
                </mxCell>
                <mxCell id="436" value="return&lt;br style=&quot;font-size: 10px;&quot;&gt;semiPerimeter" style="shape=parallelogram;html=1;strokeWidth=2;perimeter=parallelogramPerimeter;whiteSpace=wrap;rounded=1;arcSize=12;size=0.23;fontSize=10;" vertex="1" parent="1">
                    <mxGeometry x="740" y="600" width="100" height="60" as="geometry"/>
                </mxCell>
                <mxCell id="441" style="edgeStyle=none;html=1;entryX=0.5;entryY=1;entryDx=0;entryDy=0;fontSize=7;" edge="1" parent="1" source="442" target="436">
                    <mxGeometry relative="1" as="geometry"/>
                </mxCell>
                <mxCell id="442" value="&lt;div style=&quot;font-size: 12px;&quot;&gt;semiPerimeter = this.perimeter() / 2&lt;br style=&quot;font-size: 12px;&quot;&gt;&lt;/div&gt;" style="rounded=1;whiteSpace=wrap;html=1;absoluteArcSize=1;arcSize=14;strokeWidth=2;fontSize=12;" vertex="1" parent="1">
                    <mxGeometry x="740" y="700" width="100" height="60" as="geometry"/>
                </mxCell>
                <mxCell id="444" style="html=1;entryX=1;entryY=0.5;entryDx=0;entryDy=0;fontSize=12;rounded=0;edgeStyle=orthogonalEdgeStyle;exitX=0.5;exitY=1;exitDx=0;exitDy=0;exitPerimeter=0;" edge="1" parent="1" source="445" target="436">
                    <mxGeometry relative="1" as="geometry">
                        <Array as="points">
                            <mxPoint x="650" y="780"/>
                            <mxPoint x="880" y="780"/>
                            <mxPoint x="880" y="630"/>
                        </Array>
                    </mxGeometry>
                </mxCell>
                <mxCell id="451" style="edgeStyle=orthogonalEdgeStyle;rounded=0;html=1;entryX=0;entryY=0.5;entryDx=0;entryDy=0;fontSize=12;" edge="1" parent="1" source="445" target="442">
                    <mxGeometry relative="1" as="geometry"/>
                </mxCell>
                <mxCell id="445" value="if (this.isValid())" style="strokeWidth=2;html=1;shape=mxgraph.flowchart.decision;whiteSpace=wrap;fontSize=11;" vertex="1" parent="1">
                    <mxGeometry x="600" y="700" width="100" height="60" as="geometry"/>
                </mxCell>
                <mxCell id="446" value="Yes" style="text;html=1;align=center;verticalAlign=middle;resizable=0;points=[];autosize=1;strokeColor=none;fillColor=none;fontSize=12;" vertex="1" parent="1">
                    <mxGeometry x="685" y="705" width="40" height="30" as="geometry"/>
                </mxCell>
                <mxCell id="447" value="No" style="text;html=1;align=center;verticalAlign=middle;resizable=0;points=[];autosize=1;strokeColor=none;fillColor=none;fontSize=12;" vertex="1" parent="1">
                    <mxGeometry x="645" y="755" width="35" height="30" as="geometry"/>
                </mxCell>
                <mxCell id="452" style="edgeStyle=none;html=1;entryX=0.5;entryY=0;entryDx=0;entryDy=0;" edge="1" parent="1" source="453" target="456">
                    <mxGeometry relative="1" as="geometry">
                        <mxPoint x="110" y="1130" as="targetPoint"/>
                    </mxGeometry>
                </mxCell>
                <mxCell id="453" value="Start" style="strokeWidth=2;html=1;shape=mxgraph.flowchart.start_1;whiteSpace=wrap;" vertex="1" parent="1">
                    <mxGeometry x="40" y="1020" width="100" height="60" as="geometry"/>
                </mxCell>
                <mxCell id="454" value="Stop" style="strokeWidth=2;html=1;shape=mxgraph.flowchart.start_1;whiteSpace=wrap;" vertex="1" parent="1">
                    <mxGeometry x="460" y="1020" width="100" height="60" as="geometry"/>
                </mxCell>
                <mxCell id="455" style="edgeStyle=none;html=1;entryX=0.5;entryY=0;entryDx=0;entryDy=0;fontSize=4;" edge="1" parent="1" source="456" target="461">
                    <mxGeometry relative="1" as="geometry"/>
                </mxCell>
                <mxCell id="456" value="Get&lt;br&gt;lengthOne" style="shape=parallelogram;html=1;strokeWidth=2;perimeter=parallelogramPerimeter;whiteSpace=wrap;rounded=1;arcSize=12;size=0.23;fontSize=12;" vertex="1" parent="1">
                    <mxGeometry x="40" y="1120" width="100" height="60" as="geometry"/>
                </mxCell>
                <mxCell id="457" value="angle" style="text;html=1;align=center;verticalAlign=middle;resizable=0;points=[];autosize=1;strokeColor=none;fillColor=none;" vertex="1" parent="1">
                    <mxGeometry x="258" y="980" width="50" height="30" as="geometry"/>
                </mxCell>
                <mxCell id="458" style="edgeStyle=orthogonalEdgeStyle;rounded=0;html=1;fontSize=11;" edge="1" parent="1" source="459" target="454">
                    <mxGeometry relative="1" as="geometry"/>
                </mxCell>
                <mxCell id="459" value="return&lt;br&gt;angle" style="shape=parallelogram;html=1;strokeWidth=2;perimeter=parallelogramPerimeter;whiteSpace=wrap;rounded=1;arcSize=12;size=0.23;fontSize=12;" vertex="1" parent="1">
                    <mxGeometry x="460" y="1120" width="100" height="60" as="geometry"/>
                </mxCell>
                <mxCell id="460" style="edgeStyle=none;html=1;fontSize=4;" edge="1" parent="1" source="461" target="463">
                    <mxGeometry relative="1" as="geometry"/>
                </mxCell>
                <mxCell id="461" value="Get&lt;br&gt;lengthTwo" style="shape=parallelogram;html=1;strokeWidth=2;perimeter=parallelogramPerimeter;whiteSpace=wrap;rounded=1;arcSize=12;size=0.23;fontSize=12;" vertex="1" parent="1">
                    <mxGeometry x="40" y="1220" width="100" height="60" as="geometry"/>
                </mxCell>
                <mxCell id="494" style="edgeStyle=orthogonalEdgeStyle;rounded=0;html=1;entryX=0.5;entryY=0;entryDx=0;entryDy=0;fontSize=11;" edge="1" parent="1" source="463" target="493">
                    <mxGeometry relative="1" as="geometry"/>
                </mxCell>
                <mxCell id="463" value="Get&lt;br&gt;lengthThree" style="shape=parallelogram;html=1;strokeWidth=2;perimeter=parallelogramPerimeter;whiteSpace=wrap;rounded=1;arcSize=12;size=0.23;fontSize=12;" vertex="1" parent="1">
                    <mxGeometry x="40" y="1320" width="100" height="60" as="geometry"/>
                </mxCell>
                <mxCell id="464" style="edgeStyle=orthogonalEdgeStyle;rounded=0;html=1;fontSize=12;entryX=0.5;entryY=1;entryDx=0;entryDy=0;" edge="1" parent="1" source="465" target="459">
                    <mxGeometry relative="1" as="geometry">
                        <mxPoint x="510" y="1185" as="targetPoint"/>
                    </mxGeometry>
                </mxCell>
                <mxCell id="465" value="&lt;div style=&quot;font-size: 7px;&quot;&gt;&lt;div style=&quot;font-size: 7px;&quot;&gt;angle = Math.acos(&lt;span style=&quot;background-color: initial; font-size: 7px;&quot;&gt;(this.lengthTwo**2&lt;/span&gt;&lt;/div&gt;&lt;div style=&quot;font-size: 7px;&quot;&gt;&lt;span style=&quot;background-color: initial; font-size: 7px;&quot;&gt;+ this.lengthThree**2 - this.lengthOne**2)&amp;nbsp;&lt;/span&gt;&lt;span style=&quot;background-color: initial; font-size: 7px;&quot;&gt;/ (2 * this.lengthTwo * this.lengthThree)&lt;/span&gt;&lt;span style=&quot;background-color: initial; font-size: 7px;&quot;&gt;)&lt;/span&gt;&lt;/div&gt;&lt;/div&gt;" style="rounded=1;whiteSpace=wrap;html=1;absoluteArcSize=1;arcSize=14;strokeWidth=2;fontSize=7;" vertex="1" parent="1">
                    <mxGeometry x="320" y="1320" width="100" height="60" as="geometry"/>
                </mxCell>
                <mxCell id="466" style="edgeStyle=orthogonalEdgeStyle;rounded=0;html=1;entryX=0.5;entryY=1;entryDx=0;entryDy=0;entryPerimeter=0;fontSize=6;" edge="1" parent="1" source="468">
                    <mxGeometry relative="1" as="geometry">
                        <mxPoint x="230" y="1380" as="targetPoint"/>
                    </mxGeometry>
                </mxCell>
                <mxCell id="467" style="edgeStyle=orthogonalEdgeStyle;rounded=0;html=1;fontSize=12;entryX=0.5;entryY=1;entryDx=0;entryDy=0;" edge="1" parent="1" source="468" target="459">
                    <mxGeometry relative="1" as="geometry">
                        <mxPoint x="510" y="1185" as="targetPoint"/>
                    </mxGeometry>
                </mxCell>
                <mxCell id="468" value="if (this.isValid())" style="strokeWidth=2;html=1;shape=mxgraph.flowchart.decision;whiteSpace=wrap;fontSize=11;" vertex="1" parent="1">
                    <mxGeometry x="180" y="1420" width="100" height="60" as="geometry"/>
                </mxCell>
                <mxCell id="469" value="Yes" style="text;html=1;align=center;verticalAlign=middle;resizable=0;points=[];autosize=1;strokeColor=none;fillColor=none;fontSize=12;" vertex="1" parent="1">
                    <mxGeometry x="222.5" y="1400" width="40" height="30" as="geometry"/>
                </mxCell>
                <mxCell id="470" value="No" style="text;html=1;align=center;verticalAlign=middle;resizable=0;points=[];autosize=1;strokeColor=none;fillColor=none;fontSize=12;" vertex="1" parent="1">
                    <mxGeometry x="270" y="1425" width="35" height="30" as="geometry"/>
                </mxCell>
                <mxCell id="479" style="edgeStyle=orthogonalEdgeStyle;rounded=0;html=1;entryX=0.5;entryY=1;entryDx=0;entryDy=0;fontSize=5;" edge="1" parent="1" source="480" target="459">
                    <mxGeometry relative="1" as="geometry"/>
                </mxCell>
                <mxCell id="480" value="&lt;div style=&quot;font-size: 7px;&quot;&gt;&lt;div style=&quot;font-size: 7px;&quot;&gt;angle = Math.acos(&lt;span style=&quot;background-color: initial; font-size: 7px;&quot;&gt;(this.lengthOne**2&amp;nbsp;&lt;/span&gt;&lt;/div&gt;&lt;div style=&quot;font-size: 7px;&quot;&gt;&lt;span style=&quot;background-color: initial; font-size: 7px;&quot;&gt;+ this.lengthThree**2 - this.lengthTwo**2)&amp;nbsp;&lt;/span&gt;&lt;span style=&quot;background-color: initial; font-size: 7px;&quot;&gt;/ (2 * this.lengthOne * this.lengthThree)&lt;/span&gt;&lt;span style=&quot;background-color: initial; font-size: 7px;&quot;&gt;)&lt;/span&gt;&lt;/div&gt;&lt;/div&gt;" style="rounded=1;whiteSpace=wrap;html=1;absoluteArcSize=1;arcSize=14;strokeWidth=2;fontSize=7;" vertex="1" parent="1">
                    <mxGeometry x="320" y="1220" width="100" height="60" as="geometry"/>
                </mxCell>
                <mxCell id="484" style="edgeStyle=orthogonalEdgeStyle;rounded=0;html=1;entryX=0;entryY=0.5;entryDx=0;entryDy=0;fontSize=6;" edge="1" parent="1" source="485" target="459">
                    <mxGeometry relative="1" as="geometry"/>
                </mxCell>
                <mxCell id="485" value="&lt;div style=&quot;font-size: 7px;&quot;&gt;&lt;div style=&quot;font-size: 7px;&quot;&gt;angle = Math.acos(&amp;nbsp;&lt;span style=&quot;background-color: initial; font-size: 7px;&quot;&gt;(this.lengthOne**2&amp;nbsp;&lt;/span&gt;&lt;/div&gt;&lt;div style=&quot;font-size: 7px;&quot;&gt;+ this.lengthTwo**2 - this.lengthThree**2)&amp;nbsp;&lt;span style=&quot;background-color: initial; font-size: 7px;&quot;&gt;/ (2 * this.lengthOne * this.lengthTwo)&lt;/span&gt;&lt;span style=&quot;background-color: initial; font-size: 7px;&quot;&gt;)&lt;/span&gt;&lt;/div&gt;&lt;/div&gt;" style="rounded=1;whiteSpace=wrap;html=1;absoluteArcSize=1;arcSize=14;strokeWidth=2;fontSize=7;" vertex="1" parent="1">
                    <mxGeometry x="320" y="1120" width="100" height="60" as="geometry"/>
                </mxCell>
                <mxCell id="496" style="edgeStyle=orthogonalEdgeStyle;rounded=0;html=1;fontSize=11;" edge="1" parent="1" source="492" target="465">
                    <mxGeometry relative="1" as="geometry"/>
                </mxCell>
                <mxCell id="498" style="edgeStyle=orthogonalEdgeStyle;rounded=0;html=1;entryX=0;entryY=0.5;entryDx=0;entryDy=0;fontSize=11;" edge="1" parent="1" source="492" target="480">
                    <mxGeometry relative="1" as="geometry">
                        <Array as="points">
                            <mxPoint x="230" y="1250"/>
                        </Array>
                    </mxGeometry>
                </mxCell>
                <mxCell id="499" style="edgeStyle=orthogonalEdgeStyle;rounded=0;html=1;entryX=0;entryY=0.5;entryDx=0;entryDy=0;fontSize=11;" edge="1" parent="1" source="492" target="485">
                    <mxGeometry relative="1" as="geometry">
                        <Array as="points">
                            <mxPoint x="230" y="1150"/>
                        </Array>
                    </mxGeometry>
                </mxCell>
                <mxCell id="492" value="switch&lt;br style=&quot;font-size: 9px;&quot;&gt;(angleNumber)" style="strokeWidth=2;html=1;shape=mxgraph.flowchart.decision;whiteSpace=wrap;fontSize=9;" vertex="1" parent="1">
                    <mxGeometry x="180" y="1320" width="100" height="60" as="geometry"/>
                </mxCell>
                <mxCell id="495" style="edgeStyle=orthogonalEdgeStyle;rounded=0;html=1;entryX=0;entryY=0.5;entryDx=0;entryDy=0;entryPerimeter=0;fontSize=11;" edge="1" parent="1" source="493" target="468">
                    <mxGeometry relative="1" as="geometry"/>
                </mxCell>
                <mxCell id="493" value="Get&lt;br style=&quot;font-size: 11px;&quot;&gt;angleNumber" style="shape=parallelogram;html=1;strokeWidth=2;perimeter=parallelogramPerimeter;whiteSpace=wrap;rounded=1;arcSize=12;size=0.23;fontSize=11;" vertex="1" parent="1">
                    <mxGeometry x="40" y="1420" width="100" height="60" as="geometry"/>
                </mxCell>
                <mxCell id="497" value="1" style="text;html=1;align=center;verticalAlign=middle;resizable=0;points=[];autosize=1;strokeColor=none;fillColor=none;fontSize=11;" vertex="1" parent="1">
                    <mxGeometry x="270" y="1325" width="25" height="30" as="geometry"/>
                </mxCell>
                <mxCell id="500" value="2" style="text;html=1;align=center;verticalAlign=middle;resizable=0;points=[];autosize=1;strokeColor=none;fillColor=none;fontSize=11;" vertex="1" parent="1">
                    <mxGeometry x="225" y="1225" width="25" height="30" as="geometry"/>
                </mxCell>
                <mxCell id="501" value="3" style="text;html=1;align=center;verticalAlign=middle;resizable=0;points=[];autosize=1;strokeColor=none;fillColor=none;fontSize=11;" vertex="1" parent="1">
                    <mxGeometry x="225" y="1125" width="25" height="30" as="geometry"/>
                </mxCell>
                <mxCell id="502" style="edgeStyle=none;html=1;entryX=0.5;entryY=0;entryDx=0;entryDy=0;" edge="1" parent="1" source="503" target="506">
                    <mxGeometry relative="1" as="geometry">
                        <mxPoint x="670" y="1130" as="targetPoint"/>
                    </mxGeometry>
                </mxCell>
                <mxCell id="503" value="Start" style="strokeWidth=2;html=1;shape=mxgraph.flowchart.start_1;whiteSpace=wrap;" vertex="1" parent="1">
                    <mxGeometry x="600" y="1020" width="100" height="60" as="geometry"/>
                </mxCell>
                <mxCell id="504" value="Stop" style="strokeWidth=2;html=1;shape=mxgraph.flowchart.start_1;whiteSpace=wrap;" vertex="1" parent="1">
                    <mxGeometry x="1020" y="1020" width="100" height="60" as="geometry"/>
                </mxCell>
                <mxCell id="505" style="edgeStyle=none;html=1;entryX=0.5;entryY=0;entryDx=0;entryDy=0;fontSize=4;" edge="1" parent="1" source="506" target="511">
                    <mxGeometry relative="1" as="geometry"/>
                </mxCell>
                <mxCell id="506" value="Get&lt;br&gt;lengthOne" style="shape=parallelogram;html=1;strokeWidth=2;perimeter=parallelogramPerimeter;whiteSpace=wrap;rounded=1;arcSize=12;size=0.23;fontSize=12;" vertex="1" parent="1">
                    <mxGeometry x="600" y="1120" width="100" height="60" as="geometry"/>
                </mxCell>
                <mxCell id="507" value="height" style="text;html=1;align=center;verticalAlign=middle;resizable=0;points=[];autosize=1;strokeColor=none;fillColor=none;" vertex="1" parent="1">
                    <mxGeometry x="816" y="980" width="55" height="30" as="geometry"/>
                </mxCell>
                <mxCell id="508" style="edgeStyle=orthogonalEdgeStyle;rounded=0;html=1;fontSize=11;" edge="1" parent="1" source="509" target="504">
                    <mxGeometry relative="1" as="geometry"/>
                </mxCell>
                <mxCell id="509" value="return&lt;br&gt;height" style="shape=parallelogram;html=1;strokeWidth=2;perimeter=parallelogramPerimeter;whiteSpace=wrap;rounded=1;arcSize=12;size=0.23;fontSize=12;" vertex="1" parent="1">
                    <mxGeometry x="1020" y="1120" width="100" height="60" as="geometry"/>
                </mxCell>
                <mxCell id="510" style="edgeStyle=none;html=1;fontSize=4;" edge="1" parent="1" source="511" target="513">
                    <mxGeometry relative="1" as="geometry"/>
                </mxCell>
                <mxCell id="511" value="Get&lt;br&gt;lengthTwo" style="shape=parallelogram;html=1;strokeWidth=2;perimeter=parallelogramPerimeter;whiteSpace=wrap;rounded=1;arcSize=12;size=0.23;fontSize=12;" vertex="1" parent="1">
                    <mxGeometry x="600" y="1220" width="100" height="60" as="geometry"/>
                </mxCell>
                <mxCell id="512" style="edgeStyle=orthogonalEdgeStyle;rounded=0;html=1;entryX=0.5;entryY=0;entryDx=0;entryDy=0;fontSize=11;" edge="1" parent="1" source="513" target="530">
                    <mxGeometry relative="1" as="geometry"/>
                </mxCell>
                <mxCell id="513" value="Get&lt;br&gt;lengthThree" style="shape=parallelogram;html=1;strokeWidth=2;perimeter=parallelogramPerimeter;whiteSpace=wrap;rounded=1;arcSize=12;size=0.23;fontSize=12;" vertex="1" parent="1">
                    <mxGeometry x="600" y="1320" width="100" height="60" as="geometry"/>
                </mxCell>
                <mxCell id="514" style="edgeStyle=orthogonalEdgeStyle;rounded=0;html=1;fontSize=12;entryX=0.5;entryY=1;entryDx=0;entryDy=0;" edge="1" parent="1" source="515" target="509">
                    <mxGeometry relative="1" as="geometry">
                        <mxPoint x="1070" y="1185" as="targetPoint"/>
                    </mxGeometry>
                </mxCell>
                <mxCell id="515" value="&lt;div style=&quot;font-size: 12px;&quot;&gt;&lt;div style=&quot;font-size: 12px;&quot;&gt;height = (2 * this.area()) / this.lengthOne&lt;br style=&quot;font-size: 12px;&quot;&gt;&lt;/div&gt;&lt;/div&gt;" style="rounded=1;whiteSpace=wrap;html=1;absoluteArcSize=1;arcSize=14;strokeWidth=2;fontSize=12;" vertex="1" parent="1">
                    <mxGeometry x="880" y="1320" width="100" height="60" as="geometry"/>
                </mxCell>
                <mxCell id="516" style="edgeStyle=orthogonalEdgeStyle;rounded=0;html=1;entryX=0.5;entryY=1;entryDx=0;entryDy=0;entryPerimeter=0;fontSize=6;" edge="1" parent="1" source="518">
                    <mxGeometry relative="1" as="geometry">
                        <mxPoint x="790" y="1380" as="targetPoint"/>
                    </mxGeometry>
                </mxCell>
                <mxCell id="517" style="edgeStyle=orthogonalEdgeStyle;rounded=0;html=1;fontSize=12;entryX=0.5;entryY=1;entryDx=0;entryDy=0;" edge="1" parent="1" source="518" target="509">
                    <mxGeometry relative="1" as="geometry">
                        <mxPoint x="1070" y="1185" as="targetPoint"/>
                    </mxGeometry>
                </mxCell>
                <mxCell id="518" value="if (this.isValid())" style="strokeWidth=2;html=1;shape=mxgraph.flowchart.decision;whiteSpace=wrap;fontSize=11;" vertex="1" parent="1">
                    <mxGeometry x="740" y="1420" width="100" height="60" as="geometry"/>
                </mxCell>
                <mxCell id="519" value="Yes" style="text;html=1;align=center;verticalAlign=middle;resizable=0;points=[];autosize=1;strokeColor=none;fillColor=none;fontSize=12;" vertex="1" parent="1">
                    <mxGeometry x="782.5" y="1400" width="40" height="30" as="geometry"/>
                </mxCell>
                <mxCell id="520" value="No" style="text;html=1;align=center;verticalAlign=middle;resizable=0;points=[];autosize=1;strokeColor=none;fillColor=none;fontSize=12;" vertex="1" parent="1">
                    <mxGeometry x="830" y="1425" width="35" height="30" as="geometry"/>
                </mxCell>
                <mxCell id="521" style="edgeStyle=orthogonalEdgeStyle;rounded=0;html=1;entryX=0.5;entryY=1;entryDx=0;entryDy=0;fontSize=5;" edge="1" parent="1" source="522" target="509">
                    <mxGeometry relative="1" as="geometry"/>
                </mxCell>
                <mxCell id="522" value="&lt;div style=&quot;font-size: 12px;&quot;&gt;&lt;div style=&quot;font-size: 12px;&quot;&gt;height = (2 * this.area()) / this.lengthTwo&lt;br style=&quot;font-size: 12px;&quot;&gt;&lt;/div&gt;&lt;/div&gt;" style="rounded=1;whiteSpace=wrap;html=1;absoluteArcSize=1;arcSize=14;strokeWidth=2;fontSize=12;" vertex="1" parent="1">
                    <mxGeometry x="880" y="1220" width="100" height="60" as="geometry"/>
                </mxCell>
                <mxCell id="523" style="edgeStyle=orthogonalEdgeStyle;rounded=0;html=1;entryX=0;entryY=0.5;entryDx=0;entryDy=0;fontSize=6;" edge="1" parent="1" source="524" target="509">
                    <mxGeometry relative="1" as="geometry"/>
                </mxCell>
                <mxCell id="524" value="&lt;div style=&quot;&quot;&gt;&lt;div style=&quot;font-size: 12px;&quot;&gt;height = (2 * this.area()) / this.lengthThree&lt;br&gt;&lt;/div&gt;&lt;/div&gt;" style="rounded=1;whiteSpace=wrap;html=1;absoluteArcSize=1;arcSize=14;strokeWidth=2;fontSize=7;" vertex="1" parent="1">
                    <mxGeometry x="880" y="1120" width="100" height="60" as="geometry"/>
                </mxCell>
                <mxCell id="525" style="edgeStyle=orthogonalEdgeStyle;rounded=0;html=1;fontSize=11;" edge="1" parent="1" source="528" target="515">
                    <mxGeometry relative="1" as="geometry"/>
                </mxCell>
                <mxCell id="526" style="edgeStyle=orthogonalEdgeStyle;rounded=0;html=1;entryX=0;entryY=0.5;entryDx=0;entryDy=0;fontSize=11;" edge="1" parent="1" source="528" target="522">
                    <mxGeometry relative="1" as="geometry">
                        <Array as="points">
                            <mxPoint x="790" y="1250"/>
                        </Array>
                    </mxGeometry>
                </mxCell>
                <mxCell id="527" style="edgeStyle=orthogonalEdgeStyle;rounded=0;html=1;entryX=0;entryY=0.5;entryDx=0;entryDy=0;fontSize=11;" edge="1" parent="1" source="528" target="524">
                    <mxGeometry relative="1" as="geometry">
                        <Array as="points">
                            <mxPoint x="790" y="1150"/>
                        </Array>
                    </mxGeometry>
                </mxCell>
                <mxCell id="528" value="switch&lt;br style=&quot;font-size: 10px;&quot;&gt;(sideNumber)" style="strokeWidth=2;html=1;shape=mxgraph.flowchart.decision;whiteSpace=wrap;fontSize=10;" vertex="1" parent="1">
                    <mxGeometry x="740" y="1320" width="100" height="60" as="geometry"/>
                </mxCell>
                <mxCell id="529" style="edgeStyle=orthogonalEdgeStyle;rounded=0;html=1;entryX=0;entryY=0.5;entryDx=0;entryDy=0;entryPerimeter=0;fontSize=11;" edge="1" parent="1" source="530" target="518">
                    <mxGeometry relative="1" as="geometry"/>
                </mxCell>
                <mxCell id="530" value="Get&lt;br style=&quot;font-size: 12px;&quot;&gt;sideNumber" style="shape=parallelogram;html=1;strokeWidth=2;perimeter=parallelogramPerimeter;whiteSpace=wrap;rounded=1;arcSize=12;size=0.23;fontSize=12;" vertex="1" parent="1">
                    <mxGeometry x="600" y="1420" width="100" height="60" as="geometry"/>
                </mxCell>
                <mxCell id="531" value="1" style="text;html=1;align=center;verticalAlign=middle;resizable=0;points=[];autosize=1;strokeColor=none;fillColor=none;fontSize=11;" vertex="1" parent="1">
                    <mxGeometry x="830" y="1325" width="25" height="30" as="geometry"/>
                </mxCell>
                <mxCell id="532" value="2" style="text;html=1;align=center;verticalAlign=middle;resizable=0;points=[];autosize=1;strokeColor=none;fillColor=none;fontSize=11;" vertex="1" parent="1">
                    <mxGeometry x="785" y="1225" width="25" height="30" as="geometry"/>
                </mxCell>
                <mxCell id="533" value="3" style="text;html=1;align=center;verticalAlign=middle;resizable=0;points=[];autosize=1;strokeColor=none;fillColor=none;fontSize=11;" vertex="1" parent="1">
                    <mxGeometry x="785" y="1125" width="25" height="30" as="geometry"/>
                </mxCell>
                <mxCell id="534" style="edgeStyle=none;html=1;entryX=0.5;entryY=0;entryDx=0;entryDy=0;" edge="1" parent="1" source="535" target="538">
                    <mxGeometry relative="1" as="geometry">
                        <mxPoint x="110" y="1650" as="targetPoint"/>
                    </mxGeometry>
                </mxCell>
                <mxCell id="535" value="Start" style="strokeWidth=2;html=1;shape=mxgraph.flowchart.start_1;whiteSpace=wrap;" vertex="1" parent="1">
                    <mxGeometry x="40" y="1540" width="100" height="60" as="geometry"/>
                </mxCell>
                <mxCell id="536" value="Stop" style="strokeWidth=2;html=1;shape=mxgraph.flowchart.start_1;whiteSpace=wrap;" vertex="1" parent="1">
                    <mxGeometry x="180" y="1540" width="100" height="60" as="geometry"/>
                </mxCell>
                <mxCell id="537" style="edgeStyle=none;html=1;entryX=0.5;entryY=0;entryDx=0;entryDy=0;fontSize=4;" edge="1" parent="1" source="538">
                    <mxGeometry relative="1" as="geometry">
                        <mxPoint x="90" y="1740" as="targetPoint"/>
                    </mxGeometry>
                </mxCell>
                <mxCell id="538" value="Get&lt;br&gt;area" style="shape=parallelogram;html=1;strokeWidth=2;perimeter=parallelogramPerimeter;whiteSpace=wrap;rounded=1;arcSize=12;size=0.23;fontSize=12;" vertex="1" parent="1">
                    <mxGeometry x="40" y="1640" width="100" height="60" as="geometry"/>
                </mxCell>
                <mxCell id="539" value="innerCircleRadius" style="text;html=1;align=center;verticalAlign=middle;resizable=0;points=[];autosize=1;strokeColor=none;fillColor=none;" vertex="1" parent="1">
                    <mxGeometry x="110" y="1500" width="115" height="30" as="geometry"/>
                </mxCell>
                <mxCell id="540" style="edgeStyle=orthogonalEdgeStyle;rounded=0;html=1;fontSize=11;" edge="1" parent="1" source="541" target="536">
                    <mxGeometry relative="1" as="geometry"/>
                </mxCell>
                <mxCell id="541" value="return&lt;br style=&quot;font-size: 8px;&quot;&gt;innerCircleRadius" style="shape=parallelogram;html=1;strokeWidth=2;perimeter=parallelogramPerimeter;whiteSpace=wrap;rounded=1;arcSize=12;size=0.23;fontSize=8;" vertex="1" parent="1">
                    <mxGeometry x="180" y="1640" width="100" height="60" as="geometry"/>
                </mxCell>
                <mxCell id="542" style="edgeStyle=none;html=1;fontSize=4;" edge="1" parent="1" source="543">
                    <mxGeometry relative="1" as="geometry">
                        <mxPoint x="90" y="1840" as="targetPoint"/>
                    </mxGeometry>
                </mxCell>
                <mxCell id="546" style="edgeStyle=none;html=1;entryX=0.5;entryY=1;entryDx=0;entryDy=0;fontSize=7;" edge="1" parent="1" source="547" target="541">
                    <mxGeometry relative="1" as="geometry"/>
                </mxCell>
                <mxCell id="547" value="&lt;div style=&quot;font-size: 11px;&quot;&gt;innerCircleRadius = this.area() / this.semiPerimeter()&lt;br style=&quot;font-size: 11px;&quot;&gt;&lt;/div&gt;" style="rounded=1;whiteSpace=wrap;html=1;absoluteArcSize=1;arcSize=14;strokeWidth=2;fontSize=11;" vertex="1" parent="1">
                    <mxGeometry x="180" y="1745" width="100" height="60" as="geometry"/>
                </mxCell>
                <mxCell id="548" style="edgeStyle=none;html=1;fontSize=7;" edge="1" parent="1" source="550" target="547">
                    <mxGeometry relative="1" as="geometry"/>
                </mxCell>
                <mxCell id="549" style="html=1;entryX=1;entryY=0.5;entryDx=0;entryDy=0;fontSize=12;rounded=0;edgeStyle=orthogonalEdgeStyle;exitX=1;exitY=0.5;exitDx=0;exitDy=0;exitPerimeter=0;" edge="1" parent="1" source="550" target="541">
                    <mxGeometry relative="1" as="geometry">
                        <Array as="points">
                            <mxPoint x="320" y="1875"/>
                            <mxPoint x="320" y="1670"/>
                        </Array>
                    </mxGeometry>
                </mxCell>
                <mxCell id="550" value="if (this.isValid())" style="strokeWidth=2;html=1;shape=mxgraph.flowchart.decision;whiteSpace=wrap;fontSize=11;" vertex="1" parent="1">
                    <mxGeometry x="180" y="1845" width="100" height="60" as="geometry"/>
                </mxCell>
                <mxCell id="551" value="Yes" style="text;html=1;align=center;verticalAlign=middle;resizable=0;points=[];autosize=1;strokeColor=none;fillColor=none;fontSize=12;" vertex="1" parent="1">
                    <mxGeometry x="225" y="1825" width="40" height="30" as="geometry"/>
                </mxCell>
                <mxCell id="552" value="No" style="text;html=1;align=center;verticalAlign=middle;resizable=0;points=[];autosize=1;strokeColor=none;fillColor=none;fontSize=12;" vertex="1" parent="1">
                    <mxGeometry x="270" y="1845" width="35" height="30" as="geometry"/>
                </mxCell>
                <mxCell id="553" style="edgeStyle=orthogonalEdgeStyle;rounded=0;html=1;entryX=0;entryY=0.5;entryDx=0;entryDy=0;entryPerimeter=0;fontSize=10;exitX=0.5;exitY=1;exitDx=0;exitDy=0;" edge="1" parent="1" source="554" target="550">
                    <mxGeometry relative="1" as="geometry"/>
                </mxCell>
                <mxCell id="554" value="Get&lt;br style=&quot;font-size: 10px;&quot;&gt;semiPerimeter" style="shape=parallelogram;html=1;strokeWidth=2;perimeter=parallelogramPerimeter;whiteSpace=wrap;rounded=1;arcSize=12;size=0.23;fontSize=10;" vertex="1" parent="1">
                    <mxGeometry x="40" y="1740" width="100" height="60" as="geometry"/>
                </mxCell>
                <mxCell id="555" style="edgeStyle=none;html=1;entryX=0.5;entryY=0;entryDx=0;entryDy=0;" edge="1" parent="1" source="556" target="559">
                    <mxGeometry relative="1" as="geometry">
                        <mxPoint x="430" y="1650" as="targetPoint"/>
                    </mxGeometry>
                </mxCell>
                <mxCell id="556" value="Start" style="strokeWidth=2;html=1;shape=mxgraph.flowchart.start_1;whiteSpace=wrap;" vertex="1" parent="1">
                    <mxGeometry x="360" y="1540" width="100" height="60" as="geometry"/>
                </mxCell>
                <mxCell id="557" value="Stop" style="strokeWidth=2;html=1;shape=mxgraph.flowchart.start_1;whiteSpace=wrap;" vertex="1" parent="1">
                    <mxGeometry x="500" y="1540" width="100" height="60" as="geometry"/>
                </mxCell>
                <mxCell id="558" style="edgeStyle=none;html=1;entryX=0.5;entryY=0;entryDx=0;entryDy=0;fontSize=4;" edge="1" parent="1" source="559">
                    <mxGeometry relative="1" as="geometry">
                        <mxPoint x="410" y="1740" as="targetPoint"/>
                    </mxGeometry>
                </mxCell>
                <mxCell id="559" value="Get&lt;br&gt;lengthOne" style="shape=parallelogram;html=1;strokeWidth=2;perimeter=parallelogramPerimeter;whiteSpace=wrap;rounded=1;arcSize=12;size=0.23;fontSize=12;" vertex="1" parent="1">
                    <mxGeometry x="360" y="1640" width="100" height="60" as="geometry"/>
                </mxCell>
                <mxCell id="560" value="circumsicleRadius" style="text;html=1;align=center;verticalAlign=middle;resizable=0;points=[];autosize=1;strokeColor=none;fillColor=none;" vertex="1" parent="1">
                    <mxGeometry x="425" y="1495" width="120" height="30" as="geometry"/>
                </mxCell>
                <mxCell id="561" style="edgeStyle=orthogonalEdgeStyle;rounded=0;html=1;fontSize=11;" edge="1" parent="1" source="562" target="557">
                    <mxGeometry relative="1" as="geometry"/>
                </mxCell>
                <mxCell id="562" value="return&lt;br style=&quot;font-size: 12px;&quot;&gt;cirsumsicle" style="shape=parallelogram;html=1;strokeWidth=2;perimeter=parallelogramPerimeter;whiteSpace=wrap;rounded=1;arcSize=12;size=0.23;fontSize=12;" vertex="1" parent="1">
                    <mxGeometry x="500" y="1640" width="100" height="60" as="geometry"/>
                </mxCell>
                <mxCell id="563" style="edgeStyle=none;html=1;entryX=0.5;entryY=1;entryDx=0;entryDy=0;fontSize=7;" edge="1" parent="1" source="564" target="562">
                    <mxGeometry relative="1" as="geometry"/>
                </mxCell>
                <mxCell id="564" value="&lt;div style=&quot;font-size: 9px;&quot;&gt;circumsicle = this.lengthOne / (2 * Math.sin(this.angle(1)))&lt;br style=&quot;font-size: 9px;&quot;&gt;&lt;/div&gt;" style="rounded=1;whiteSpace=wrap;html=1;absoluteArcSize=1;arcSize=14;strokeWidth=2;fontSize=9;" vertex="1" parent="1">
                    <mxGeometry x="500" y="1745" width="100" height="60" as="geometry"/>
                </mxCell>
                <mxCell id="565" style="edgeStyle=none;html=1;fontSize=7;" edge="1" parent="1" source="567" target="564">
                    <mxGeometry relative="1" as="geometry"/>
                </mxCell>
                <mxCell id="566" style="html=1;entryX=1;entryY=0.5;entryDx=0;entryDy=0;fontSize=12;rounded=0;edgeStyle=orthogonalEdgeStyle;exitX=1;exitY=0.5;exitDx=0;exitDy=0;exitPerimeter=0;" edge="1" parent="1" source="567" target="562">
                    <mxGeometry relative="1" as="geometry">
                        <Array as="points">
                            <mxPoint x="640" y="1875"/>
                            <mxPoint x="640" y="1670"/>
                        </Array>
                    </mxGeometry>
                </mxCell>
                <mxCell id="567" value="if (this.isValid())" style="strokeWidth=2;html=1;shape=mxgraph.flowchart.decision;whiteSpace=wrap;fontSize=11;" vertex="1" parent="1">
                    <mxGeometry x="500" y="1845" width="100" height="60" as="geometry"/>
                </mxCell>
                <mxCell id="568" value="Yes" style="text;html=1;align=center;verticalAlign=middle;resizable=0;points=[];autosize=1;strokeColor=none;fillColor=none;fontSize=12;" vertex="1" parent="1">
                    <mxGeometry x="545" y="1825" width="40" height="30" as="geometry"/>
                </mxCell>
                <mxCell id="569" value="No" style="text;html=1;align=center;verticalAlign=middle;resizable=0;points=[];autosize=1;strokeColor=none;fillColor=none;fontSize=12;" vertex="1" parent="1">
                    <mxGeometry x="590" y="1845" width="35" height="30" as="geometry"/>
                </mxCell>
                <mxCell id="570" style="edgeStyle=orthogonalEdgeStyle;rounded=0;html=1;entryX=0;entryY=0.5;entryDx=0;entryDy=0;entryPerimeter=0;fontSize=10;exitX=0.5;exitY=1;exitDx=0;exitDy=0;" edge="1" parent="1" source="571" target="567">
                    <mxGeometry relative="1" as="geometry"/>
                </mxCell>
                <mxCell id="571" value="Get&lt;br style=&quot;font-size: 12px;&quot;&gt;angle" style="shape=parallelogram;html=1;strokeWidth=2;perimeter=parallelogramPerimeter;whiteSpace=wrap;rounded=1;arcSize=12;size=0.23;fontSize=12;" vertex="1" parent="1">
                    <mxGeometry x="360" y="1740" width="100" height="60" as="geometry"/>
                </mxCell>
            </root>
        </mxGraphModel>
    </diagram>
</mxfile>